<?xml version="1.0" encoding="utf-8"?>
<!-- Generator: Adobe Illustrator 22.0.1, SVG Export Plug-In . SVG Version: 6.00 Build 0)  -->
<svg version="1.1" id="Layer_1" xmlns="http://www.w3.org/2000/svg" xmlns:xlink="http://www.w3.org/1999/xlink" x="0px" y="0px"
	 viewBox="0 0 850.4 255.1" style="enable-background:new 0 0 850.4 255.1;" xml:space="preserve">
<style type="text/css">
	.st0{opacity:0.5;}
	.st1{fill:none;stroke:#C6C6C6;stroke-width:0.6;stroke-linejoin:round;stroke-miterlimit:10;}
	.st2{fill:#999999;}
	.st3{opacity:0.5;fill:none;stroke:#C6C6C6;stroke-width:0.6;stroke-linejoin:round;stroke-miterlimit:10;}
	.st4{opacity:0.5;fill:#999999;}
</style>
<g class="st0">
	<polyline class="st1" points="0,73.1 0,56.7 14.2,48.6 	"/>
	<line class="st1" x1="0" y1="56.7" x2="0" y2="73.1"/>
	<polyline class="st1" points="42.5,48.6 42.5,64.9 28.3,73.1 	"/>
	<polygon class="st1" points="42.5,64.9 28.3,73.1 28.3,56.7 42.5,48.6 	"/>
	<polyline class="st1" points="14.2,48.6 28.3,56.7 28.3,73.1 	"/>
	<polyline class="st1" points="70.9,48.6 70.9,64.9 56.7,73.1 42.5,64.9 42.5,48.6 	"/>
	<polygon class="st1" points="70.9,64.9 56.7,73.1 56.7,56.7 70.9,48.6 	"/>
	<polygon class="st1" points="56.7,56.7 56.7,73.1 42.5,64.9 42.5,48.6 	"/>
	<line class="st1" x1="70.9" y1="64.9" x2="70.9" y2="48.6"/>
	<path class="st1" d="M85,73.1"/>
	<path class="st1" d="M99.2,48.6"/>
	<polyline class="st1" points="85,73.1 85,56.7 99.2,48.6 	"/>
	<polyline class="st1" points="70.9,64.9 70.9,48.6 85,56.7 85,73.1 	"/>
	<path class="st1" d="M99.2,48.6"/>
	<path class="st1" d="M99.2,48.6"/>
	<line class="st1" x1="184.3" y1="48.6" x2="184.3" y2="64.9"/>
	<polyline class="st1" points="170.1,56.7 184.3,48.6 184.3,64.9 	"/>
	<line class="st1" x1="155.9" y1="48.6" x2="170.1" y2="56.7"/>
	<line class="st1" x1="184.3" y1="64.9" x2="184.3" y2="48.6"/>
	<line class="st1" x1="212.6" y1="48.6" x2="212.6" y2="64.9"/>
	<polyline class="st1" points="198.4,56.7 212.6,48.6 212.6,64.9 	"/>
	<polyline class="st1" points="184.3,64.9 184.3,48.6 198.4,56.7 	"/>
	<polyline class="st1" points="240.9,48.6 240.9,64.9 226.8,73.1 212.6,64.9 212.6,48.6 	"/>
	<polygon class="st1" points="240.9,64.9 226.8,73.1 226.8,56.7 240.9,48.6 	"/>
	<polygon class="st1" points="226.8,56.7 226.8,73.1 212.6,64.9 212.6,48.6 	"/>
	<polyline class="st1" points="269.3,48.6 269.3,64.9 255.1,73.1 240.9,64.9 240.9,48.6 	"/>
	<polyline class="st1" points="269.3,48.6 269.3,64.9 255.1,73.1 	"/>
	<polyline class="st1" points="255.1,73.1 240.9,64.9 240.9,48.6 	"/>
	<polyline class="st1" points="297.6,64.9 283.5,73.1 269.3,64.9 269.3,48.6 	"/>
	<polyline class="st1" points="297.6,64.9 283.5,73.1 283.5,56.7 	"/>
	<polygon class="st1" points="283.5,56.7 283.5,73.1 269.3,64.9 269.3,48.6 	"/>
	<line class="st1" x1="311.8" y1="73.1" x2="297.6" y2="64.9"/>
	<polyline class="st1" points="311.8,73.1 311.8,56.7 326,48.6 	"/>
	<polyline class="st1" points="311.8,56.7 311.8,73.1 297.6,64.9 	"/>
	<polyline class="st1" points="354.3,48.6 354.3,64.9 340.2,73.1 	"/>
	<polygon class="st1" points="354.3,64.9 340.2,73.1 340.2,56.7 354.3,48.6 	"/>
	<polyline class="st1" points="326,48.6 340.2,56.7 340.2,73.1 	"/>
	<polyline class="st1" points="382.7,48.6 382.7,64.9 368.5,73.1 354.3,64.9 354.3,48.6 	"/>
	<polygon class="st1" points="382.7,64.9 368.5,73.1 368.5,56.7 382.7,48.6 	"/>
	<polygon class="st1" points="368.5,56.7 368.5,73.1 354.3,64.9 354.3,48.6 	"/>
	<polyline class="st1" points="411,48.6 411,64.9 396.9,73.1 382.7,64.9 382.7,48.6 	"/>
	<polygon class="st1" points="411,64.9 396.9,73.1 396.9,56.7 411,48.6 	"/>
	<polygon class="st1" points="396.9,56.7 396.9,73.1 382.7,64.9 382.7,48.6 	"/>
	<polyline class="st1" points="439.4,64.9 425.2,73.1 411,64.9 411,48.6 	"/>
	<polyline class="st1" points="439.4,64.9 425.2,73.1 425.2,56.7 	"/>
	<polygon class="st1" points="425.2,56.7 425.2,73.1 411,64.9 411,48.6 	"/>
	<polyline class="st1" points="467.7,48.6 467.7,64.9 453.5,73.1 439.4,64.9 	"/>
	<polygon class="st1" points="467.7,64.9 453.5,73.1 453.5,56.7 467.7,48.6 	"/>
	<polyline class="st1" points="453.5,56.7 453.5,73.1 439.4,64.9 	"/>
	<polyline class="st1" points="481.9,73.1 467.7,64.9 467.7,48.6 	"/>
	<polyline class="st1" points="481.9,73.1 481.9,56.7 496.1,48.6 	"/>
	<polygon class="st1" points="481.9,56.7 481.9,73.1 467.7,64.9 467.7,48.6 	"/>
	<polyline class="st1" points="524.4,48.6 524.4,64.9 510.2,73.1 	"/>
	<polygon class="st1" points="524.4,64.9 510.2,73.1 510.2,56.7 524.4,48.6 	"/>
	<polyline class="st1" points="496.1,48.6 510.2,56.7 510.2,73.1 	"/>
	<polyline class="st1" points="552.8,48.6 552.8,64.9 538.6,73.1 524.4,64.9 524.4,48.6 	"/>
	<polygon class="st1" points="552.8,64.9 538.6,73.1 538.6,56.7 552.8,48.6 	"/>
	<polygon class="st1" points="538.6,56.7 538.6,73.1 524.4,64.9 524.4,48.6 	"/>
	<polyline class="st1" points="581.1,48.6 581.1,64.9 566.9,73.1 552.8,64.9 552.8,48.6 	"/>
	<polygon class="st1" points="581.1,64.9 566.9,73.1 566.9,56.7 581.1,48.6 	"/>
	<polygon class="st1" points="566.9,56.7 566.9,73.1 552.8,64.9 552.8,48.6 	"/>
	<polyline class="st1" points="595.3,73.1 581.1,64.9 581.1,48.6 	"/>
	<polyline class="st1" points="595.3,73.1 595.3,56.7 609.4,48.6 	"/>
	<polygon class="st1" points="595.3,56.7 595.3,73.1 581.1,64.9 581.1,48.6 	"/>
	<polyline class="st1" points="623.6,73.1 623.6,56.7 637.8,48.6 	"/>
	<polyline class="st1" points="609.4,48.6 623.6,56.7 623.6,73.1 	"/>
	<polyline class="st1" points="666.1,48.6 666.1,64.9 652,73.1 	"/>
	<polygon class="st1" points="666.1,64.9 652,73.1 652,56.7 666.1,48.6 	"/>
	<polyline class="st1" points="637.8,48.6 652,56.7 652,73.1 	"/>
	<polyline class="st1" points="694.5,48.6 694.5,64.9 680.3,73.1 666.1,64.9 666.1,48.6 	"/>
	<polygon class="st1" points="694.5,64.9 680.3,73.1 680.3,56.7 694.5,48.6 	"/>
	<polygon class="st1" points="680.3,56.7 680.3,73.1 666.1,64.9 666.1,48.6 	"/>
	<polyline class="st1" points="722.8,48.6 722.8,64.9 708.7,73.1 694.5,64.9 694.5,48.6 	"/>
	<polygon class="st1" points="722.8,64.9 708.7,73.1 708.7,56.7 722.8,48.6 	"/>
	<polygon class="st1" points="708.7,56.7 708.7,73.1 694.5,64.9 694.5,48.6 	"/>
	<polyline class="st1" points="737,73.1 722.8,64.9 722.8,48.6 	"/>
	<line class="st1" x1="737" y1="73.1" x2="737" y2="56.7"/>
	<polygon class="st1" points="737,56.7 737,73.1 722.8,64.9 722.8,48.6 	"/>
	<polyline class="st1" points="807.9,48.6 807.9,64.9 793.7,73.1 	"/>
	<polygon class="st1" points="807.9,64.9 793.7,73.1 793.7,56.7 807.9,48.6 	"/>
	<polyline class="st1" points="779.5,48.6 793.7,56.7 793.7,73.1 	"/>
	<polyline class="st1" points="836.2,48.6 836.2,64.9 822,73.1 807.9,64.9 807.9,48.6 	"/>
	<polygon class="st1" points="836.2,64.9 822,73.1 822,56.7 836.2,48.6 	"/>
	<polygon class="st1" points="822,56.7 822,73.1 807.9,64.9 807.9,48.6 	"/>
	<polyline class="st1" points="850.4,73.1 836.2,64.9 836.2,48.6 	"/>
	<line class="st1" x1="850.4" y1="73.1" x2="850.4" y2="56.7"/>
	<polygon class="st1" points="850.4,56.7 850.4,73.1 836.2,64.9 836.2,48.6 	"/>
	<polyline class="st1" points="28.3,73.1 28.3,89.5 14.2,97.7 0,89.5 0,73.1 	"/>
	<polyline class="st1" points="28.3,73.1 28.3,89.5 14.2,97.7 14.2,81.3 28.3,73.1 	"/>
	<polyline class="st1" points="0,73.1 14.2,81.3 14.2,97.7 0,89.5 0,73.1 	"/>
	<polyline class="st1" points="56.7,73.1 56.7,89.5 42.5,97.7 28.3,89.5 28.3,73.1 	"/>
	<polyline class="st1" points="56.7,73.1 56.7,89.5 42.5,97.7 42.5,81.3 56.7,73.1 	"/>
	<polyline class="st1" points="28.3,73.1 42.5,81.3 42.5,97.7 28.3,89.5 28.3,73.1 	"/>
	<line class="st1" x1="56.7" y1="89.5" x2="56.7" y2="73.1"/>
	<line class="st1" x1="70.9" y1="81.3" x2="85" y2="73.1"/>
	<line class="st1" x1="56.7" y1="89.5" x2="56.7" y2="73.1"/>
	<line class="st1" x1="56.7" y1="73.1" x2="70.9" y2="81.3"/>
	<path class="st1" d="M99.2,81.3"/>
	<line class="st1" x1="85" y1="73.1" x2="99.2" y2="81.3"/>
	<polyline class="st1" points="226.8,73.1 226.8,89.5 212.6,97.7 	"/>
	<polyline class="st1" points="226.8,73.1 226.8,89.5 212.6,97.7 212.6,81.3 226.8,73.1 	"/>
	<line class="st1" x1="212.6" y1="81.3" x2="212.6" y2="97.7"/>
	<polyline class="st1" points="255.1,73.1 255.1,89.5 240.9,97.7 226.8,89.5 226.8,73.1 	"/>
	<polyline class="st1" points="255.1,73.1 255.1,89.5 240.9,97.7 240.9,81.3 255.1,73.1 	"/>
	<polyline class="st1" points="240.9,81.3 240.9,97.7 226.8,89.5 226.8,73.1 	"/>
	<line class="st1" x1="255.1" y1="89.5" x2="255.1" y2="73.1"/>
	<line class="st1" x1="269.3" y1="81.3" x2="283.5" y2="73.1"/>
	<line class="st1" x1="255.1" y1="89.5" x2="255.1" y2="73.1"/>
	<line class="st1" x1="255.1" y1="73.1" x2="269.3" y2="81.3"/>
	<line class="st1" x1="311.8" y1="73.1" x2="311.8" y2="89.5"/>
	<line class="st1" x1="297.6" y1="81.3" x2="311.8" y2="73.1"/>
	<line class="st1" x1="311.8" y1="73.1" x2="311.8" y2="89.5"/>
	<line class="st1" x1="283.5" y1="73.1" x2="297.6" y2="81.3"/>
	<polyline class="st1" points="340.2,89.5 326,97.7 311.8,89.5 311.8,73.1 	"/>
	<polyline class="st1" points="340.2,89.5 326,97.7 326,81.3 340.2,73.1 	"/>
	<polyline class="st1" points="311.8,73.1 326,81.3 326,97.7 311.8,89.5 311.8,73.1 	"/>
	<polyline class="st1" points="368.5,73.1 368.5,89.5 354.3,97.7 340.2,89.5 	"/>
	<polyline class="st1" points="368.5,73.1 368.5,89.5 354.3,97.7 354.3,81.3 368.5,73.1 	"/>
	<polyline class="st1" points="340.2,73.1 354.3,81.3 354.3,97.7 340.2,89.5 	"/>
	<polyline class="st1" points="396.9,73.1 396.9,89.5 382.7,97.7 368.5,89.5 368.5,73.1 	"/>
	<polyline class="st1" points="396.9,73.1 396.9,89.5 382.7,97.7 382.7,81.3 396.9,73.1 	"/>
	<polyline class="st1" points="382.7,81.3 382.7,97.7 368.5,89.5 368.5,73.1 	"/>
	<polyline class="st1" points="425.2,73.1 425.2,89.5 411,97.7 396.9,89.5 396.9,73.1 	"/>
	<polyline class="st1" points="425.2,73.1 425.2,89.5 411,97.7 411,81.3 425.2,73.1 	"/>
	<polyline class="st1" points="396.9,73.1 411,81.3 411,97.7 396.9,89.5 396.9,73.1 	"/>
	<line class="st1" x1="425.2" y1="89.5" x2="425.2" y2="73.1"/>
	<line class="st1" x1="453.5" y1="73.1" x2="453.5" y2="89.5"/>
	<line class="st1" x1="453.5" y1="73.1" x2="453.5" y2="89.5"/>
	<line class="st1" x1="425.2" y1="89.5" x2="425.2" y2="73.1"/>
	<polyline class="st1" points="481.9,73.1 481.9,89.5 467.7,97.7 453.5,89.5 453.5,73.1 	"/>
	<polyline class="st1" points="481.9,73.1 481.9,89.5 467.7,97.7 467.7,81.3 481.9,73.1 	"/>
	<polyline class="st1" points="453.5,73.1 467.7,81.3 467.7,97.7 453.5,89.5 453.5,73.1 	"/>
	<line class="st1" x1="481.9" y1="89.5" x2="481.9" y2="73.1"/>
	<line class="st1" x1="510.2" y1="73.1" x2="510.2" y2="89.5"/>
	<line class="st1" x1="496.1" y1="81.3" x2="510.2" y2="73.1"/>
	<line class="st1" x1="510.2" y1="73.1" x2="510.2" y2="89.5"/>
	<line class="st1" x1="481.9" y1="89.5" x2="481.9" y2="73.1"/>
	<line class="st1" x1="481.9" y1="73.1" x2="496.1" y2="81.3"/>
	<line class="st1" x1="510.2" y1="89.5" x2="510.2" y2="73.1"/>
	<line class="st1" x1="538.6" y1="73.1" x2="538.6" y2="89.5"/>
	<line class="st1" x1="524.4" y1="81.3" x2="538.6" y2="73.1"/>
	<line class="st1" x1="538.6" y1="73.1" x2="538.6" y2="89.5"/>
	<line class="st1" x1="510.2" y1="89.5" x2="510.2" y2="73.1"/>
	<line class="st1" x1="510.2" y1="73.1" x2="524.4" y2="81.3"/>
	<line class="st1" x1="538.6" y1="89.5" x2="538.6" y2="73.1"/>
	<line class="st1" x1="552.8" y1="81.3" x2="566.9" y2="73.1"/>
	<line class="st1" x1="538.6" y1="89.5" x2="538.6" y2="73.1"/>
	<line class="st1" x1="538.6" y1="73.1" x2="552.8" y2="81.3"/>
	<polyline class="st1" points="623.6,73.1 623.6,89.5 609.4,97.7 	"/>
	<polyline class="st1" points="623.6,73.1 623.6,89.5 609.4,97.7 609.4,81.3 623.6,73.1 	"/>
	<polyline class="st1" points="595.3,73.1 609.4,81.3 609.4,97.7 	"/>
	<polyline class="st1" points="652,73.1 652,89.5 637.8,97.7 623.6,89.5 623.6,73.1 	"/>
	<polyline class="st1" points="652,73.1 652,89.5 637.8,97.7 637.8,81.3 652,73.1 	"/>
	<polyline class="st1" points="637.8,81.3 637.8,97.7 623.6,89.5 623.6,73.1 	"/>
	<polyline class="st1" points="680.3,73.1 680.3,89.5 666.1,97.7 652,89.5 652,73.1 	"/>
	<polyline class="st1" points="680.3,73.1 680.3,89.5 666.1,97.7 666.1,81.3 680.3,73.1 	"/>
	<polyline class="st1" points="652,73.1 666.1,81.3 666.1,97.7 652,89.5 652,73.1 	"/>
	<polyline class="st1" points="708.7,73.1 708.7,89.5 694.5,97.7 680.3,89.5 680.3,73.1 	"/>
	<polyline class="st1" points="708.7,73.1 708.7,89.5 694.5,97.7 	"/>
	<polyline class="st1" points="694.5,97.7 680.3,89.5 680.3,73.1 	"/>
	<polyline class="st1" points="722.8,97.7 708.7,89.5 708.7,73.1 	"/>
	<polyline class="st1" points="722.8,97.7 722.8,81.3 737,73.1 	"/>
	<polyline class="st1" points="708.7,73.1 722.8,81.3 722.8,97.7 708.7,89.5 708.7,73.1 	"/>
	<line class="st1" x1="822" y1="73.1" x2="822" y2="89.5"/>
	<line class="st1" x1="807.9" y1="81.3" x2="822" y2="73.1"/>
	<line class="st1" x1="822" y1="73.1" x2="822" y2="89.5"/>
	<line class="st1" x1="793.7" y1="73.1" x2="807.9" y2="81.3"/>
	<polyline class="st1" points="850.4,73.1 850.4,89.5 836.2,97.7 822,89.5 822,73.1 	"/>
	<polyline class="st1" points="850.4,73.1 850.4,89.5 836.2,97.7 836.2,81.3 850.4,73.1 	"/>
	<polyline class="st1" points="822,73.1 836.2,81.3 836.2,97.7 822,89.5 822,73.1 	"/>
	<polyline class="st1" points="14.2,97.7 14.2,114 0,122.2 	"/>
	<polygon class="st1" points="14.2,114 0,122.2 0,105.8 14.2,97.7 	"/>
	<line class="st1" x1="0" y1="105.8" x2="0" y2="122.2"/>
	<polyline class="st1" points="42.5,97.7 42.5,114 28.3,122.2 14.2,114 14.2,97.7 	"/>
	<polyline class="st1" points="42.5,97.7 42.5,114 28.3,122.2 	"/>
	<polyline class="st1" points="28.3,122.2 14.2,114 14.2,97.7 	"/>
	<line class="st1" x1="42.5" y1="114" x2="42.5" y2="97.7"/>
	<polyline class="st1" points="42.5,114 42.5,97.7 56.7,105.8 	"/>
	<line class="st1" x1="212.6" y1="97.7" x2="212.6" y2="114"/>
	<polyline class="st1" points="198.4,105.8 212.6,97.7 212.6,114 	"/>
	<path class="st1" d="M198.4,105.8"/>
	<polyline class="st1" points="240.9,97.7 240.9,114 226.8,122.2 212.6,114 212.6,97.7 	"/>
	<polygon class="st1" points="240.9,114 226.8,122.2 226.8,105.8 240.9,97.7 	"/>
	<polygon class="st1" points="226.8,105.8 226.8,122.2 212.6,114 212.6,97.7 	"/>
	<polyline class="st1" points="255.1,122.2 240.9,114 240.9,97.7 	"/>
	<line class="st1" x1="255.1" y1="122.2" x2="255.1" y2="105.8"/>
	<polygon class="st1" points="255.1,105.8 255.1,122.2 240.9,114 240.9,97.7 	"/>
	<polyline class="st1" points="326,97.7 326,114 311.8,122.2 	"/>
	<polygon class="st1" points="326,114 311.8,122.2 311.8,105.8 326,97.7 	"/>
	<line class="st1" x1="311.8" y1="105.8" x2="311.8" y2="122.2"/>
	<polyline class="st1" points="354.3,97.7 354.3,114 340.2,122.2 326,114 326,97.7 	"/>
	<polygon class="st1" points="354.3,114 340.2,122.2 340.2,105.8 354.3,97.7 	"/>
	<polygon class="st1" points="340.2,105.8 340.2,122.2 326,114 326,97.7 	"/>
	<polyline class="st1" points="382.7,97.7 382.7,114 368.5,122.2 354.3,114 354.3,97.7 	"/>
	<polyline class="st1" points="382.7,97.7 382.7,114 368.5,122.2 	"/>
	<polyline class="st1" points="368.5,122.2 354.3,114 354.3,97.7 	"/>
	<line class="st1" x1="382.7" y1="114" x2="382.7" y2="97.7"/>
	<line class="st1" x1="382.7" y1="114" x2="382.7" y2="97.7"/>
	<line class="st1" x1="439.4" y1="97.7" x2="439.4" y2="114"/>
	<line class="st1" x1="439.4" y1="97.7" x2="439.4" y2="114"/>
	<line class="st1" x1="411" y1="97.7" x2="425.2" y2="105.8"/>
	<polyline class="st1" points="467.7,97.7 467.7,114 453.5,122.2 439.4,114 439.4,97.7 	"/>
	<polygon class="st1" points="467.7,114 453.5,122.2 453.5,105.8 467.7,97.7 	"/>
	<polyline class="st1" points="453.5,105.8 453.5,122.2 439.4,114 439.4,97.7 	"/>
	<polyline class="st1" points="481.9,122.2 467.7,114 467.7,97.7 	"/>
	<line class="st1" x1="481.9" y1="122.2" x2="481.9" y2="105.8"/>
	<polygon class="st1" points="481.9,105.8 481.9,122.2 467.7,114 467.7,97.7 	"/>
	<polyline class="st1" points="609.4,97.7 609.4,114 595.3,122.2 	"/>
	<polygon class="st1" points="609.4,114 595.3,122.2 595.3,105.8 609.4,97.7 	"/>
	<line class="st1" x1="595.3" y1="105.8" x2="595.3" y2="122.2"/>
	<polyline class="st1" points="637.8,97.7 637.8,114 623.6,122.2 609.4,114 609.4,97.7 	"/>
	<polyline class="st1" points="623.6,105.8 637.8,97.7 637.8,114 623.6,122.2 	"/>
	<polyline class="st1" points="623.6,122.2 609.4,114 609.4,97.7 623.6,105.8 	"/>
	<polyline class="st1" points="652,122.2 637.8,114 637.8,97.7 	"/>
	<polyline class="st1" points="652,122.2 652,105.8 666.1,97.7 	"/>
	<polygon class="st1" points="652,105.8 652,122.2 637.8,114 637.8,97.7 	"/>
	<line class="st1" x1="694.5" y1="97.7" x2="694.5" y2="114"/>
	<line class="st1" x1="694.5" y1="97.7" x2="694.5" y2="114"/>
	<polyline class="st1" points="722.8,97.7 722.8,114 708.7,122.2 694.5,114 694.5,97.7 	"/>
	<polygon class="st1" points="722.8,114 708.7,122.2 708.7,105.8 722.8,97.7 	"/>
	<polygon class="st1" points="708.7,105.8 708.7,122.2 694.5,114 694.5,97.7 	"/>
	<line class="st1" x1="836.2" y1="97.7" x2="850.4" y2="105.8"/>
	<polyline class="st1" points="28.3,122.2 28.3,138.6 14.2,146.8 0,138.6 0,122.2 	"/>
	<polyline class="st1" points="28.3,122.2 28.3,138.6 14.2,146.8 	"/>
	<polyline class="st1" points="14.2,146.8 0,138.6 0,122.2 	"/>
	<polyline class="st1" points="56.7,138.6 42.5,146.8 28.3,138.6 28.3,122.2 	"/>
	<polyline class="st1" points="56.7,138.6 42.5,146.8 42.5,130.4 	"/>
	<polyline class="st1" points="28.3,122.2 42.5,130.4 42.5,146.8 28.3,138.6 28.3,122.2 	"/>
	<polyline class="st1" points="85,138.6 70.9,146.8 56.7,138.6 	"/>
	<line class="st1" x1="85" y1="138.6" x2="70.9" y2="146.8"/>
	<line class="st1" x1="70.9" y1="146.8" x2="56.7" y2="138.6"/>
	<line class="st1" x1="99.2" y1="146.8" x2="85" y2="138.6"/>
	<line class="st1" x1="99.2" y1="146.8" x2="85" y2="138.6"/>
	<line class="st1" x1="226.8" y1="122.2" x2="226.8" y2="138.6"/>
	<line class="st1" x1="212.6" y1="130.4" x2="226.8" y2="122.2"/>
	<line class="st1" x1="226.8" y1="122.2" x2="226.8" y2="138.6"/>
	<line class="st1" x1="226.8" y1="138.6" x2="226.8" y2="122.2"/>
	<line class="st1" x1="240.9" y1="130.4" x2="255.1" y2="122.2"/>
	<line class="st1" x1="226.8" y1="138.6" x2="226.8" y2="122.2"/>
	<line class="st1" x1="226.8" y1="122.2" x2="240.9" y2="130.4"/>
	<line class="st1" x1="311.8" y1="122.2" x2="311.8" y2="138.6"/>
	<line class="st1" x1="311.8" y1="122.2" x2="311.8" y2="138.6"/>
	<line class="st1" x1="311.8" y1="138.6" x2="311.8" y2="122.2"/>
	<line class="st1" x1="340.2" y1="122.2" x2="340.2" y2="138.6"/>
	<line class="st1" x1="326" y1="130.4" x2="340.2" y2="122.2"/>
	<line class="st1" x1="340.2" y1="122.2" x2="340.2" y2="138.6"/>
	<line class="st1" x1="311.8" y1="138.6" x2="311.8" y2="122.2"/>
	<line class="st1" x1="311.8" y1="122.2" x2="326" y2="130.4"/>
	<polyline class="st1" points="368.5,122.2 368.5,138.6 354.3,146.8 340.2,138.6 340.2,122.2 	"/>
	<polyline class="st1" points="368.5,122.2 368.5,138.6 354.3,146.8 354.3,130.4 368.5,122.2 	"/>
	<polyline class="st1" points="354.3,130.4 354.3,146.8 340.2,138.6 340.2,122.2 	"/>
	<polyline class="st1" points="396.9,138.6 382.7,146.8 368.5,138.6 368.5,122.2 	"/>
	<polyline class="st1" points="396.9,138.6 382.7,146.8 382.7,130.4 	"/>
	<polyline class="st1" points="368.5,122.2 382.7,130.4 382.7,146.8 368.5,138.6 368.5,122.2 	"/>
	<line class="st1" x1="481.9" y1="122.2" x2="481.9" y2="138.6"/>
	<line class="st1" x1="467.7" y1="130.4" x2="481.9" y2="122.2"/>
	<line class="st1" x1="481.9" y1="122.2" x2="481.9" y2="138.6"/>
	<line class="st1" x1="453.5" y1="122.2" x2="467.7" y2="130.4"/>
	<line class="st1" x1="481.9" y1="138.6" x2="481.9" y2="122.2"/>
	<line class="st1" x1="481.9" y1="138.6" x2="481.9" y2="122.2"/>
	<line class="st1" x1="481.9" y1="122.2" x2="496.1" y2="130.4"/>
	<line class="st1" x1="623.6" y1="122.2" x2="623.6" y2="138.6"/>
	<line class="st1" x1="609.4" y1="130.4" x2="623.6" y2="122.2"/>
	<line class="st1" x1="623.6" y1="122.2" x2="623.6" y2="138.6"/>
	<line class="st1" x1="595.3" y1="122.2" x2="609.4" y2="130.4"/>
	<polyline class="st1" points="652,122.2 652,138.6 637.8,146.8 623.6,138.6 623.6,122.2 	"/>
	<polyline class="st1" points="652,122.2 652,138.6 637.8,146.8 637.8,130.4 652,122.2 	"/>
	<polyline class="st1" points="623.6,122.2 637.8,130.4 637.8,146.8 623.6,138.6 623.6,122.2 	"/>
	<polyline class="st1" points="666.1,146.8 652,138.6 652,122.2 	"/>
	<polyline class="st1" points="666.1,146.8 652,138.6 652,122.2 	"/>
	<polyline class="st1" points="14.1,146.8 14.1,163.1 -0.1,171.3 	"/>
	<polygon class="st1" points="14.1,163.1 -0.1,171.3 -0.1,155 14.1,146.8 	"/>
	<line class="st1" x1="-0.1" y1="155" x2="-0.1" y2="171.3"/>
	<polyline class="st1" points="42.4,146.8 42.4,163.1 28.3,171.3 14.1,163.1 14.1,146.8 	"/>
	<polygon class="st1" points="42.4,163.1 28.3,171.3 28.3,155 42.4,146.8 	"/>
	<polygon class="st1" points="28.3,155 28.3,171.3 14.1,163.1 14.1,146.8 	"/>
	<polyline class="st1" points="70.8,146.8 70.8,163.1 56.6,171.3 42.4,163.1 42.4,146.8 	"/>
	<polyline class="st1" points="70.8,146.8 70.8,163.1 56.6,171.3 	"/>
	<polyline class="st1" points="56.6,171.3 42.4,163.1 42.4,146.8 	"/>
	<polyline class="st1" points="99.1,146.8 99.1,163.1 85,171.3 70.8,163.1 70.8,146.8 	"/>
	<polygon class="st1" points="99.1,163.1 85,171.3 85,155 99.1,146.8 	"/>
	<polygon class="st1" points="85,155 85,171.3 70.8,163.1 70.8,146.8 	"/>
	<polyline class="st1" points="127.5,163.1 113.3,171.3 99.1,163.1 99.1,146.8 	"/>
	<polyline class="st1" points="127.5,163.1 113.3,171.3 113.3,155 	"/>
	<polygon class="st1" points="113.3,155 113.3,171.3 99.1,163.1 99.1,146.8 	"/>
	<line class="st1" x1="354.2" y1="146.8" x2="354.2" y2="163.1"/>
	<line class="st1" x1="354.2" y1="146.8" x2="354.2" y2="163.1"/>
	<polyline class="st1" points="382.6,146.8 382.6,163.1 368.4,171.3 354.2,163.1 354.2,146.8 	"/>
	<polygon class="st1" points="382.6,163.1 368.4,171.3 368.4,155 382.6,146.8 	"/>
	<polygon class="st1" points="368.4,155 368.4,171.3 354.2,163.1 354.2,146.8 	"/>
	<polyline class="st1" points="410.9,163.1 396.8,171.3 382.6,163.1 382.6,146.8 	"/>
	<polyline class="st1" points="410.9,163.1 396.8,171.3 396.8,155 	"/>
	<polygon class="st1" points="396.8,155 396.8,171.3 382.6,163.1 382.6,146.8 	"/>
	<line class="st1" x1="425.1" y1="171.3" x2="410.9" y2="163.1"/>
	<line class="st1" x1="425.1" y1="171.3" x2="410.9" y2="163.1"/>
	<polyline class="st1" points="637.7,146.8 637.7,163.1 623.5,171.3 	"/>
	<polygon class="st1" points="637.7,163.1 623.5,171.3 623.5,155 637.7,146.8 	"/>
	<line class="st1" x1="623.5" y1="155" x2="623.5" y2="171.3"/>
	<line class="st1" x1="637.7" y1="163.1" x2="637.7" y2="146.8"/>
	<line class="st1" x1="651.9" y1="155" x2="666.1" y2="146.8"/>
	<polyline class="st1" points="637.7,163.1 637.7,146.8 651.9,155 	"/>
	<polyline class="st1" points="56.6,171.3 56.6,187.7 42.4,195.9 	"/>
	<polyline class="st1" points="56.6,171.3 56.6,187.7 42.4,195.9 42.4,179.5 56.6,171.3 	"/>
	<polyline class="st1" points="28.3,171.3 42.4,179.5 42.4,195.9 	"/>
	<polyline class="st1" points="85,171.3 85,187.7 70.8,195.9 56.6,187.7 56.6,171.3 	"/>
	<polyline class="st1" points="85,171.3 85,187.7 70.8,195.9 70.8,179.5 85,171.3 	"/>
	<polyline class="st1" points="113.3,171.3 113.3,187.7 99.1,195.9 85,187.7 85,171.3 	"/>
	<polyline class="st1" points="113.3,171.3 113.3,187.7 99.1,195.9 99.1,179.5 113.3,171.3 	"/>
	<polyline class="st1" points="85,171.3 99.1,179.5 99.1,195.9 85,187.7 85,171.3 	"/>
	<line class="st1" x1="113.3" y1="187.7" x2="113.3" y2="171.3"/>
	<line class="st1" x1="113.3" y1="187.7" x2="113.3" y2="171.3"/>
	<line class="st1" x1="368.4" y1="171.3" x2="368.4" y2="187.7"/>
	<line class="st1" x1="368.4" y1="171.3" x2="368.4" y2="187.7"/>
	<polyline class="st1" points="396.8,171.3 396.8,187.7 382.6,195.9 368.4,187.7 368.4,171.3 	"/>
	<polyline class="st1" points="396.8,171.3 396.8,187.7 382.6,195.9 	"/>
	<polyline class="st1" points="382.6,195.9 368.4,187.7 368.4,171.3 	"/>
	<polyline class="st1" points="425.1,171.3 425.1,187.7 410.9,195.9 396.8,187.7 396.8,171.3 	"/>
	<polyline class="st1" points="425.1,171.3 425.1,187.7 410.9,195.9 410.9,179.5 425.1,171.3 	"/>
	<polyline class="st1" points="396.8,171.3 410.9,179.5 410.9,195.9 396.8,187.7 396.8,171.3 	"/>
	<line class="st1" x1="425.1" y1="187.7" x2="425.1" y2="171.3"/>
	<line class="st1" x1="425.1" y1="187.7" x2="425.1" y2="171.3"/>
	<line class="st1" x1="425.1" y1="171.3" x2="439.3" y2="179.5"/>
	<line class="st1" x1="623.5" y1="171.3" x2="623.5" y2="187.7"/>
	<line class="st1" x1="609.4" y1="179.5" x2="623.5" y2="171.3"/>
	<line class="st1" x1="623.5" y1="171.3" x2="623.5" y2="187.7"/>
	<line class="st1" x1="623.5" y1="187.7" x2="623.5" y2="171.3"/>
	<line class="st1" x1="623.5" y1="187.7" x2="623.5" y2="171.3"/>
	<line class="st1" x1="623.5" y1="171.3" x2="637.7" y2="179.5"/>
	<line class="st1" x1="28.3" y1="204.1" x2="42.4" y2="195.9"/>
	<line class="st1" x1="56.6" y1="204.1" x2="70.8" y2="195.9"/>
	<line class="st1" x1="42.4" y1="195.9" x2="56.6" y2="204.1"/>
	<polyline class="st1" points="297.7,171.3 297.7,187.7 283.5,195.9 	"/>
	<polygon class="st1" points="297.7,187.7 283.5,195.9 283.5,179.5 297.7,171.3 	"/>
	<polyline class="st1" points="269.3,171.3 283.5,179.5 283.5,195.9 	"/>
	<polyline class="st1" points="326,171.3 326,187.7 311.9,195.9 297.7,187.7 297.7,171.3 	"/>
	<polygon class="st1" points="326,187.7 311.9,195.9 311.9,179.5 326,171.3 	"/>
	<polygon class="st1" points="311.9,179.5 311.9,195.9 297.7,187.7 297.7,171.3 	"/>
	<line class="st1" x1="326" y1="187.7" x2="326" y2="171.3"/>
	<line class="st1" x1="326" y1="187.7" x2="326" y2="171.3"/>
	<polyline class="st1" points="283.5,195.9 283.5,212.2 269.3,220.4 	"/>
	<polyline class="st1" points="283.5,195.9 283.5,212.2 269.3,220.4 	"/>
	<polyline class="st1" points="297.7,220.4 283.5,212.2 283.5,195.9 	"/>
	<polyline class="st1" points="297.7,220.4 297.7,204.1 311.9,195.9 	"/>
	<polyline class="st1" points="283.5,195.9 297.7,204.1 297.7,220.4 283.5,212.2 283.5,195.9 	"/>
</g>
<g class="st0">
	<circle class="st2" cx="42.5" cy="64.9" r="1.1"/>
	<path class="st2" d="M70.9,63.8c-0.6,0-1.1,0.5-1.1,1.1c0,0.6,0.5,1.1,1.1,1.1"/>
	<path class="st2" d="M99.2,66"/>
	<circle class="st2" cx="184.3" cy="64.9" r="1.1"/>
	<circle class="st2" cx="212.6" cy="64.9" r="1.1"/>
	<circle class="st2" cx="240.9" cy="64.9" r="1.1"/>
	<circle class="st2" cx="269.3" cy="64.9" r="1.1"/>
	<circle class="st2" cx="297.6" cy="64.9" r="1.1"/>
	<circle class="st2" cx="354.3" cy="64.9" r="1.1"/>
	<circle class="st2" cx="382.7" cy="64.9" r="1.1"/>
	<circle class="st2" cx="411" cy="64.9" r="1.1"/>
	<circle class="st2" cx="439.4" cy="64.9" r="1.1"/>
	<circle class="st2" cx="467.7" cy="64.9" r="1.1"/>
	<circle class="st2" cx="524.4" cy="64.9" r="1.1"/>
	<circle class="st2" cx="552.8" cy="64.9" r="1.1"/>
	<circle class="st2" cx="581.1" cy="64.9" r="1.1"/>
	<circle class="st2" cx="666.1" cy="64.9" r="1.1"/>
	<circle class="st2" cx="694.5" cy="64.9" r="1.1"/>
	<circle class="st2" cx="722.8" cy="64.9" r="1.1"/>
	<circle class="st2" cx="807.9" cy="64.9" r="1.1"/>
	<circle class="st2" cx="836.2" cy="64.9" r="1.1"/>
	<circle class="st2" cx="42.5" cy="64.9" r="1.1"/>
	<path class="st2" d="M70.9,63.8c-0.6,0-1.1,0.5-1.1,1.1c0,0.6,0.5,1.1,1.1,1.1"/>
	<path class="st2" d="M99.2,66"/>
	<circle class="st2" cx="184.3" cy="64.9" r="1.1"/>
	<circle class="st2" cx="212.6" cy="64.9" r="1.1"/>
	<circle class="st2" cx="240.9" cy="64.9" r="1.1"/>
	<circle class="st2" cx="269.3" cy="64.9" r="1.1"/>
	<circle class="st2" cx="297.6" cy="64.9" r="1.1"/>
	<circle class="st2" cx="354.3" cy="64.9" r="1.1"/>
	<circle class="st2" cx="382.7" cy="64.9" r="1.1"/>
	<circle class="st2" cx="411" cy="64.9" r="1.1"/>
	<circle class="st2" cx="439.4" cy="64.9" r="1.1"/>
	<circle class="st2" cx="467.7" cy="64.9" r="1.1"/>
	<circle class="st2" cx="524.4" cy="64.9" r="1.1"/>
	<circle class="st2" cx="552.8" cy="64.9" r="1.1"/>
	<circle class="st2" cx="581.1" cy="64.9" r="1.1"/>
	<circle class="st2" cx="666.1" cy="64.9" r="1.1"/>
	<circle class="st2" cx="694.5" cy="64.9" r="1.1"/>
	<circle class="st2" cx="722.8" cy="64.9" r="1.1"/>
	<circle class="st2" cx="807.9" cy="64.9" r="1.1"/>
	<circle class="st2" cx="836.2" cy="64.9" r="1.1"/>
	<circle class="st2" cx="0.1" cy="73.1" r="1.1"/>
	<circle class="st2" cx="28.4" cy="73.1" r="1.1"/>
	<circle class="st2" cx="56.8" cy="73.1" r="1.1"/>
	<circle class="st2" cx="85.1" cy="73.1" r="1.1"/>
	<circle class="st2" cx="226.8" cy="73.1" r="1.1"/>
	<circle class="st2" cx="255.2" cy="73.1" r="1.1"/>
	<circle class="st2" cx="283.5" cy="73.1" r="1.1"/>
	<circle class="st2" cx="311.9" cy="73.1" r="1.1"/>
	<circle class="st2" cx="340.2" cy="73.1" r="1.1"/>
	<circle class="st2" cx="368.6" cy="73.1" r="1.1"/>
	<circle class="st2" cx="396.9" cy="73.1" r="1.1"/>
	<circle class="st2" cx="425.3" cy="73.1" r="1.1"/>
	<circle class="st2" cx="453.6" cy="73.1" r="1.1"/>
	<circle class="st2" cx="482" cy="73.1" r="1.1"/>
	<circle class="st2" cx="510.3" cy="73.1" r="1.1"/>
	<circle class="st2" cx="538.7" cy="73.1" r="1.1"/>
	<circle class="st2" cx="567" cy="73.1" r="1.1"/>
	<circle class="st2" cx="595.4" cy="73.1" r="1.1"/>
	<circle class="st2" cx="623.7" cy="73.1" r="1.1"/>
	<circle class="st2" cx="652" cy="73.1" r="1.1"/>
	<circle class="st2" cx="680.4" cy="73.1" r="1.1"/>
	<circle class="st2" cx="708.7" cy="73.1" r="1.1"/>
	<circle class="st2" cx="737.1" cy="73.1" r="1.1"/>
	<circle class="st2" cx="793.8" cy="73.1" r="1.1"/>
	<circle class="st2" cx="822.1" cy="73.1" r="1.1"/>
	<circle class="st2" cx="850.5" cy="73.1" r="1.1"/>
	<circle class="st2" cx="14.2" cy="81.3" r="1.1"/>
	<circle class="st2" cx="42.5" cy="81.3" r="1.1"/>
	<circle class="st2" cx="70.9" cy="81.3" r="1.1"/>
	<circle class="st2" cx="99.2" cy="81.3" r="1.1"/>
	<circle class="st2" cx="212.6" cy="81.3" r="1.1"/>
	<circle class="st2" cx="240.9" cy="81.3" r="1.1"/>
	<circle class="st2" cx="269.3" cy="81.3" r="1.1"/>
	<circle class="st2" cx="297.6" cy="81.3" r="1.1"/>
	<circle class="st2" cx="326" cy="81.3" r="1.1"/>
	<circle class="st2" cx="354.3" cy="81.3" r="1.1"/>
	<path class="st2" d="M382.7,82.4c0.6,0,1.1-0.5,1.1-1.1c0-0.6-0.5-1.1-1.1-1.1"/>
	<circle class="st2" cx="411" cy="81.3" r="1.1"/>
	<circle class="st2" cx="467.7" cy="81.3" r="1.1"/>
	<circle class="st2" cx="496.1" cy="81.3" r="1.1"/>
	<circle class="st2" cx="524.4" cy="81.3" r="1.1"/>
	<circle class="st2" cx="552.8" cy="81.3" r="1.1"/>
	<circle class="st2" cx="609.4" cy="81.3" r="1.1"/>
	<circle class="st2" cx="637.8" cy="81.3" r="1.1"/>
	<circle class="st2" cx="666.1" cy="81.3" r="1.1"/>
	<circle class="st2" cx="722.8" cy="81.3" r="1.1"/>
	<circle class="st2" cx="807.9" cy="81.3" r="1.1"/>
	<circle class="st2" cx="836.2" cy="81.3" r="1.1"/>
	<circle class="st2" cx="0" cy="89.5" r="1.1"/>
	<circle class="st2" cx="28.3" cy="89.5" r="1.1"/>
	<circle class="st2" cx="56.7" cy="89.5" r="1.1"/>
	<circle class="st2" cx="226.8" cy="89.5" r="1.1"/>
	<circle class="st2" cx="255.1" cy="89.5" r="1.1"/>
	<circle class="st2" cx="311.8" cy="89.5" r="1.1"/>
	<circle class="st2" cx="340.2" cy="89.5" r="1.1"/>
	<circle class="st2" cx="368.5" cy="89.5" r="1.1"/>
	<circle class="st2" cx="396.9" cy="89.5" r="1.1"/>
	<circle class="st2" cx="425.2" cy="89.5" r="1.1"/>
	<circle class="st2" cx="453.5" cy="89.5" r="1.1"/>
	<circle class="st2" cx="481.9" cy="89.5" r="1.1"/>
	<circle class="st2" cx="510.2" cy="89.5" r="1.1"/>
	<circle class="st2" cx="538.6" cy="89.5" r="1.1"/>
	<circle class="st2" cx="623.6" cy="89.5" r="1.1"/>
	<circle class="st2" cx="652" cy="89.5" r="1.1"/>
	<circle class="st2" cx="680.3" cy="89.5" r="1.1"/>
	<circle class="st2" cx="708.7" cy="89.5" r="1.1"/>
	<circle class="st2" cx="822" cy="89.5" r="1.1"/>
	<circle class="st2" cx="0" cy="89.5" r="1.1"/>
	<circle class="st2" cx="28.3" cy="89.5" r="1.1"/>
	<circle class="st2" cx="56.7" cy="89.5" r="1.1"/>
	<circle class="st2" cx="226.8" cy="89.5" r="1.1"/>
	<circle class="st2" cx="255.1" cy="89.5" r="1.1"/>
	<circle class="st2" cx="311.8" cy="89.5" r="1.1"/>
	<circle class="st2" cx="340.2" cy="89.5" r="1.1"/>
	<circle class="st2" cx="368.5" cy="89.5" r="1.1"/>
	<circle class="st2" cx="396.9" cy="89.5" r="1.1"/>
	<circle class="st2" cx="425.2" cy="89.5" r="1.1"/>
	<circle class="st2" cx="453.5" cy="89.5" r="1.1"/>
	<circle class="st2" cx="481.9" cy="89.5" r="1.1"/>
	<circle class="st2" cx="510.2" cy="89.5" r="1.1"/>
	<circle class="st2" cx="538.6" cy="89.5" r="1.1"/>
	<circle class="st2" cx="623.6" cy="89.5" r="1.1"/>
	<circle class="st2" cx="652" cy="89.5" r="1.1"/>
	<circle class="st2" cx="680.3" cy="89.5" r="1.1"/>
	<circle class="st2" cx="708.7" cy="89.5" r="1.1"/>
	<circle class="st2" cx="822" cy="89.5" r="1.1"/>
	<circle class="st2" cx="14.3" cy="97.7" r="1.1"/>
	<circle class="st2" cx="42.6" cy="97.7" r="1.1"/>
	<circle class="st2" cx="212.7" cy="97.7" r="1.1"/>
	<circle class="st2" cx="241" cy="97.7" r="1.1"/>
	<circle class="st2" cx="326.1" cy="97.7" r="1.1"/>
	<circle class="st2" cx="354.4" cy="97.7" r="1.1"/>
	<circle class="st2" cx="382.8" cy="97.7" r="1.1"/>
	<circle class="st2" cx="411.1" cy="97.7" r="1.1"/>
	<circle class="st2" cx="439.4" cy="97.7" r="1.1"/>
	<circle class="st2" cx="467.8" cy="97.7" r="1.1"/>
	<circle class="st2" cx="609.5" cy="97.7" r="1.1"/>
	<circle class="st2" cx="637.9" cy="97.7" r="1.1"/>
	<circle class="st2" cx="666.2" cy="97.7" r="1.1"/>
	<circle class="st2" cx="694.6" cy="97.7" r="1.1"/>
	<path class="st2" d="M722.9,96.6c-0.6,0-1.1,0.5-1.1,1.1c0,0.6,0.5,1.1,1.1,1.1"/>
	<circle class="st2" cx="836.3" cy="97.7" r="1.1"/>
	<circle class="st2" cx="0" cy="105.8" r="1.1"/>
	<circle class="st2" cx="56.7" cy="105.8" r="1.1"/>
	<circle class="st2" cx="198.4" cy="105.8" r="1.1"/>
	<circle class="st2" cx="226.8" cy="105.8" r="1.1"/>
	<circle class="st2" cx="255.1" cy="105.8" r="1.1"/>
	<circle class="st2" cx="311.8" cy="105.8" r="1.1"/>
	<circle class="st2" cx="340.2" cy="105.8" r="1.1"/>
	<circle class="st2" cx="425.2" cy="105.8" r="1.1"/>
	<circle class="st2" cx="453.5" cy="105.8" r="1.1"/>
	<path class="st2" d="M480.8,105.8c0,0.6,0.5,1.1,1.1,1.1"/>
	<circle class="st2" cx="595.3" cy="105.8" r="1.1"/>
	<path class="st2" d="M623.6,104.7c-0.6,0-1.1,0.5-1.1,1.1c0,0.6,0.5,1.1,1.1,1.1"/>
	<circle class="st2" cx="652" cy="105.8" r="1.1"/>
	<circle class="st2" cx="708.7" cy="105.8" r="1.1"/>
	<circle class="st2" cx="850.4" cy="89.5" r="1.1"/>
	<circle class="st2" cx="850.4" cy="105.8" r="1.1"/>
	<circle class="st2" cx="14.1" cy="114" r="1.1"/>
	<circle class="st2" cx="42.4" cy="114" r="1.1"/>
	<circle class="st2" cx="212.5" cy="114" r="1.1"/>
	<circle class="st2" cx="240.9" cy="114" r="1.1"/>
	<circle class="st2" cx="325.9" cy="114" r="1.1"/>
	<circle class="st2" cx="354.3" cy="114" r="1.1"/>
	<circle class="st2" cx="382.6" cy="114" r="1.1"/>
	<circle class="st2" cx="439.3" cy="114" r="1.1"/>
	<circle class="st2" cx="467.6" cy="114" r="1.1"/>
	<circle class="st2" cx="609.4" cy="114" r="1.1"/>
	<circle class="st2" cx="637.7" cy="114" r="1.1"/>
	<circle class="st2" cx="694.4" cy="114" r="1.1"/>
	<circle class="st2" cx="722.8" cy="114" r="1.1"/>
	<circle class="st2" cx="14.1" cy="114" r="1.1"/>
	<circle class="st2" cx="42.4" cy="114" r="1.1"/>
	<circle class="st2" cx="212.5" cy="114" r="1.1"/>
	<circle class="st2" cx="240.9" cy="114" r="1.1"/>
	<circle class="st2" cx="325.9" cy="114" r="1.1"/>
	<circle class="st2" cx="354.3" cy="114" r="1.1"/>
	<circle class="st2" cx="382.6" cy="114" r="1.1"/>
	<circle class="st2" cx="439.3" cy="114" r="1.1"/>
	<circle class="st2" cx="467.6" cy="114" r="1.1"/>
	<circle class="st2" cx="609.4" cy="114" r="1.1"/>
	<circle class="st2" cx="637.7" cy="114" r="1.1"/>
	<circle class="st2" cx="694.4" cy="114" r="1.1"/>
	<circle class="st2" cx="722.8" cy="114" r="1.1"/>
	<circle class="st2" cx="0" cy="122.2" r="1.1"/>
	<circle class="st2" cx="28.3" cy="122.2" r="1.1"/>
	<path class="st2" d="M55.6,122.2c0,0.6,0.5,1.1,1.1,1.1"/>
	<circle class="st2" cx="226.8" cy="122.2" r="1.1"/>
	<circle class="st2" cx="255.1" cy="122.2" r="1.1"/>
	<circle class="st2" cx="311.8" cy="122.2" r="1.1"/>
	<circle class="st2" cx="340.2" cy="122.2" r="1.1"/>
	<circle class="st2" cx="368.5" cy="122.2" r="1.1"/>
	<circle class="st2" cx="453.5" cy="122.2" r="1.1"/>
	<circle class="st2" cx="481.9" cy="122.2" r="1.1"/>
	<path class="st2" d="M596.4,122.2c0-0.6-0.5-1.1-1.1-1.1c-0.6,0-1.1,0.5-1.1,1.1"/>
	<circle class="st2" cx="623.6" cy="122.2" r="1.1"/>
	<circle class="st2" cx="652" cy="122.2" r="1.1"/>
	<circle class="st2" cx="708.7" cy="122.2" r="1.1"/>
	<circle class="st2" cx="42.4" cy="130.4" r="1.1"/>
	<path class="st2" d="M213.6,130.4c0-0.6-0.5-1.1-1.1-1.1"/>
	<circle class="st2" cx="240.9" cy="130.4" r="1.1"/>
	<circle class="st2" cx="325.9" cy="130.4" r="1.1"/>
	<path class="st2" d="M354.3,131.5c0.6,0,1.1-0.5,1.1-1.1"/>
	<circle class="st2" cx="382.6" cy="130.4" r="1.1"/>
	<circle class="st2" cx="467.6" cy="130.4" r="1.1"/>
	<circle class="st2" cx="496" cy="130.4" r="1.1"/>
	<circle class="st2" cx="609.4" cy="130.4" r="1.1"/>
	<circle class="st2" cx="637.7" cy="130.4" r="1.1"/>
	<circle class="st2" cx="-0.1" cy="138.6" r="1.1"/>
	<circle class="st2" cx="28.3" cy="138.6" r="1.1"/>
	<circle class="st2" cx="56.6" cy="138.6" r="1.1"/>
	<path class="st2" d="M83.9,138.6c0,0.6,0.5,1.1,1.1,1.1c0.6,0,1.1-0.5,1.1-1.1"/>
	<circle class="st2" cx="226.7" cy="138.6" r="1.1"/>
	<circle class="st2" cx="311.7" cy="138.6" r="1.1"/>
	<circle class="st2" cx="340.1" cy="138.6" r="1.1"/>
	<circle class="st2" cx="368.4" cy="138.6" r="1.1"/>
	<circle class="st2" cx="396.8" cy="138.6" r="1.1"/>
	<circle class="st2" cx="481.8" cy="138.6" r="1.1"/>
	<circle class="st2" cx="623.5" cy="138.6" r="1.1"/>
	<circle class="st2" cx="651.9" cy="138.6" r="1.1"/>
	<circle class="st2" cx="-0.1" cy="138.6" r="1.1"/>
	<circle class="st2" cx="28.3" cy="138.6" r="1.1"/>
	<circle class="st2" cx="56.6" cy="138.6" r="1.1"/>
	<path class="st2" d="M83.9,138.6c0,0.6,0.5,1.1,1.1,1.1c0.6,0,1.1-0.5,1.1-1.1"/>
	<circle class="st2" cx="226.7" cy="138.6" r="1.1"/>
	<circle class="st2" cx="311.7" cy="138.6" r="1.1"/>
	<circle class="st2" cx="340.1" cy="138.6" r="1.1"/>
	<circle class="st2" cx="368.4" cy="138.6" r="1.1"/>
	<circle class="st2" cx="396.8" cy="138.6" r="1.1"/>
	<circle class="st2" cx="481.8" cy="138.6" r="1.1"/>
	<circle class="st2" cx="623.5" cy="138.6" r="1.1"/>
	<circle class="st2" cx="651.9" cy="138.6" r="1.1"/>
	<circle class="st2" cx="14.2" cy="146.8" r="1.1"/>
	<circle class="st2" cx="42.5" cy="146.8" r="1.1"/>
	<circle class="st2" cx="70.9" cy="146.8" r="1.1"/>
	<circle class="st2" cx="99.2" cy="146.8" r="1.1"/>
	<circle class="st2" cx="354.3" cy="146.8" r="1.1"/>
	<circle class="st2" cx="382.7" cy="146.8" r="1.1"/>
	<circle class="st2" cx="637.8" cy="146.8" r="1.1"/>
	<circle class="st2" cx="666.1" cy="146.8" r="1.1"/>
	<circle class="st2" cx="-0.1" cy="155" r="1.1"/>
	<circle class="st2" cx="28.3" cy="155" r="1.1"/>
	<circle class="st2" cx="85" cy="155" r="1.1"/>
	<circle class="st2" cx="113.3" cy="155" r="1.1"/>
	<circle class="st2" cx="368.4" cy="155" r="1.1"/>
	<circle class="st2" cx="396.8" cy="155" r="1.1"/>
	<circle class="st2" cx="623.5" cy="155" r="1.1"/>
	<circle class="st2" cx="651.9" cy="155" r="1.1"/>
	<circle class="st2" cx="14" cy="163.1" r="1.1"/>
	<circle class="st2" cx="42.4" cy="163.1" r="1.1"/>
	<circle class="st2" cx="70.7" cy="163.1" r="1.1"/>
	<circle class="st2" cx="99" cy="163.1" r="1.1"/>
	<circle class="st2" cx="127.4" cy="163.1" r="1.1"/>
	<circle class="st2" cx="354.2" cy="163.1" r="1.1"/>
	<circle class="st2" cx="382.5" cy="163.1" r="1.1"/>
	<circle class="st2" cx="410.9" cy="163.1" r="1.1"/>
	<circle class="st2" cx="637.6" cy="163.1" r="1.1"/>
	<circle class="st2" cx="14" cy="163.1" r="1.1"/>
	<circle class="st2" cx="42.4" cy="163.1" r="1.1"/>
	<circle class="st2" cx="70.7" cy="163.1" r="1.1"/>
	<circle class="st2" cx="99" cy="163.1" r="1.1"/>
	<circle class="st2" cx="127.4" cy="163.1" r="1.1"/>
	<circle class="st2" cx="354.2" cy="163.1" r="1.1"/>
	<circle class="st2" cx="382.5" cy="163.1" r="1.1"/>
	<circle class="st2" cx="410.9" cy="163.1" r="1.1"/>
	<circle class="st2" cx="637.6" cy="163.1" r="1.1"/>
	<circle class="st2" cx="-0.1" cy="171.3" r="1.1"/>
	<circle class="st2" cx="28.3" cy="171.3" r="1.1"/>
	<circle class="st2" cx="56.6" cy="171.3" r="1.1"/>
	<circle class="st2" cx="85" cy="171.3" r="1.1"/>
	<circle class="st2" cx="113.3" cy="171.3" r="1.1"/>
	<circle class="st2" cx="368.4" cy="171.3" r="1.1"/>
	<circle class="st2" cx="396.8" cy="171.3" r="1.1"/>
	<circle class="st2" cx="425.1" cy="171.3" r="1.1"/>
	<circle class="st2" cx="623.5" cy="171.3" r="1.1"/>
	<circle class="st2" cx="42.4" cy="179.5" r="1.1"/>
	<circle class="st2" cx="99" cy="179.5" r="1.1"/>
	<circle class="st2" cx="410.9" cy="179.5" r="1.1"/>
	<circle class="st2" cx="439.2" cy="179.5" r="1.1"/>
	<circle class="st2" cx="609.3" cy="179.5" r="1.1"/>
	<circle class="st2" cx="637.6" cy="179.5" r="1.1"/>
	<circle class="st2" cx="56.5" cy="187.7" r="1.1"/>
	<circle class="st2" cx="84.9" cy="187.7" r="1.1"/>
	<circle class="st2" cx="113.2" cy="187.7" r="1.1"/>
	<path class="st2" d="M368.3,188.8c0.6,0,1.1-0.5,1.1-1.1c0-0.6-0.5-1.1-1.1-1.1"/>
	<circle class="st2" cx="396.7" cy="187.7" r="1.1"/>
	<circle class="st2" cx="425" cy="187.7" r="1.1"/>
	<circle class="st2" cx="623.5" cy="187.7" r="1.1"/>
	<circle class="st2" cx="56.5" cy="187.7" r="1.1"/>
	<circle class="st2" cx="84.9" cy="187.7" r="1.1"/>
	<circle class="st2" cx="113.2" cy="187.7" r="1.1"/>
	<path class="st2" d="M368.3,188.8c0.6,0,1.1-0.5,1.1-1.1c0-0.6-0.5-1.1-1.1-1.1"/>
	<circle class="st2" cx="396.7" cy="187.7" r="1.1"/>
	<circle class="st2" cx="425" cy="187.7" r="1.1"/>
	<circle class="st2" cx="623.5" cy="187.7" r="1.1"/>
	<circle class="st2" cx="42.4" cy="195.9" r="1.1"/>
	<circle class="st2" cx="70.8" cy="195.9" r="1.1"/>
	<circle class="st2" cx="99.1" cy="195.9" r="1.1"/>
	<path class="st2" d="M383.7,195.9c0-0.6-0.5-1.1-1.1-1.1s-1.1,0.5-1.1,1.1"/>
	<path class="st2" d="M412,195.9c0-0.6-0.5-1.1-1.1-1.1s-1.1,0.5-1.1,1.1"/>
	<circle class="st2" cx="496" cy="195.9" r="1.1"/>
	<circle class="st2" cx="524.3" cy="195.9" r="1.1"/>
	<circle class="st2" cx="552.7" cy="195.9" r="1.1"/>
	<circle class="st2" cx="581" cy="195.9" r="1.1"/>
	<path class="st2" d="M56.5,203c-0.6,0-1.1,0.5-1.1,1.1"/>
	<circle class="st2" cx="481.7" cy="204.1" r="1.1"/>
	<circle class="st2" cx="510.1" cy="204.1" r="1.1"/>
	<circle class="st2" cx="538.4" cy="204.1" r="1.1"/>
	<circle class="st2" cx="566.8" cy="204.1" r="1.1"/>
	<circle class="st2" cx="524.3" cy="212.3" r="1.1"/>
	<circle class="st2" cx="552.7" cy="212.3" r="1.1"/>
	<circle class="st2" cx="581" cy="212.3" r="1.1"/>
	<circle class="st2" cx="524.3" cy="212.3" r="1.1"/>
	<circle class="st2" cx="552.7" cy="212.3" r="1.1"/>
	<circle class="st2" cx="581" cy="212.3" r="1.1"/>
	<circle class="st2" cx="510.2" cy="220.4" r="1.1"/>
	<circle class="st2" cx="538.6" cy="220.4" r="1.1"/>
	<circle class="st2" cx="566.9" cy="220.4" r="1.1"/>
	<circle class="st2" cx="538.5" cy="236.8" r="1.1"/>
	<circle class="st2" cx="566.8" cy="236.8" r="1.1"/>
	<circle class="st2" cx="538.5" cy="236.8" r="1.1"/>
	<circle class="st2" cx="566.8" cy="236.8" r="1.1"/>
	<circle class="st2" cx="524.4" cy="245" r="1.1"/>
	<circle class="st2" cx="552.7" cy="245" r="1.1"/>
	<line class="st1" x1="481.8" y1="204.1" x2="496" y2="195.9"/>
	<polyline class="st1" points="524.3,195.9 524.3,212.2 510.1,220.4 	"/>
	<polygon class="st1" points="524.3,212.2 510.1,220.4 510.1,204.1 524.3,195.9 	"/>
	<polyline class="st1" points="496,195.9 510.1,204.1 510.1,220.4 	"/>
	<polyline class="st1" points="552.7,195.9 552.7,212.2 538.5,220.4 524.3,212.2 524.3,195.9 	"/>
	<polygon class="st1" points="552.7,212.2 538.5,220.4 538.5,204.1 552.7,195.9 	"/>
	<polygon class="st1" points="538.5,204.1 538.5,220.4 524.3,212.2 524.3,195.9 	"/>
	<polyline class="st1" points="581,195.9 581,212.2 566.8,220.4 552.7,212.2 552.7,195.9 	"/>
	<polygon class="st1" points="581,212.2 566.8,220.4 566.8,204.1 581,195.9 	"/>
	<polygon class="st1" points="566.8,204.1 566.8,220.4 552.7,212.2 552.7,195.9 	"/>
	<line class="st1" x1="581" y1="212.2" x2="581" y2="195.9"/>
	<line class="st1" x1="581" y1="212.2" x2="581" y2="195.9"/>
	<polyline class="st1" points="538.5,220.4 538.5,236.8 524.3,245 	"/>
	<polyline class="st1" points="538.5,220.4 538.5,236.8 524.3,245 	"/>
	<polyline class="st1" points="566.8,220.4 566.8,236.8 552.7,245 538.5,236.8 538.5,220.4 	"/>
	<polyline class="st1" points="566.8,220.4 566.8,236.8 552.7,245 	"/>
	<polyline class="st1" points="552.7,245 538.5,236.8 538.5,220.4 	"/>
	<line class="st1" x1="566.8" y1="236.8" x2="566.8" y2="220.4"/>
	<line class="st1" x1="566.8" y1="236.8" x2="566.8" y2="220.4"/>
	<circle class="st2" cx="496" cy="195.9" r="1.1"/>
	<circle class="st2" cx="524.3" cy="195.9" r="1.1"/>
	<circle class="st2" cx="552.7" cy="195.9" r="1.1"/>
	<circle class="st2" cx="581" cy="195.9" r="1.1"/>
	<circle class="st2" cx="481.7" cy="204.1" r="1.1"/>
	<circle class="st2" cx="510.1" cy="204.1" r="1.1"/>
	<circle class="st2" cx="538.4" cy="204.1" r="1.1"/>
	<circle class="st2" cx="566.8" cy="204.1" r="1.1"/>
	<circle class="st2" cx="524.3" cy="212.3" r="1.1"/>
	<circle class="st2" cx="552.7" cy="212.3" r="1.1"/>
	<circle class="st2" cx="581" cy="212.3" r="1.1"/>
	<circle class="st2" cx="524.3" cy="212.3" r="1.1"/>
	<circle class="st2" cx="552.7" cy="212.3" r="1.1"/>
	<circle class="st2" cx="581" cy="212.3" r="1.1"/>
	<circle class="st2" cx="510.2" cy="220.4" r="1.1"/>
	<circle class="st2" cx="538.6" cy="220.4" r="1.1"/>
	<circle class="st2" cx="566.9" cy="220.4" r="1.1"/>
	<circle class="st2" cx="538.5" cy="236.8" r="1.1"/>
	<circle class="st2" cx="566.8" cy="236.8" r="1.1"/>
	<circle class="st2" cx="538.5" cy="236.8" r="1.1"/>
	<circle class="st2" cx="566.8" cy="236.8" r="1.1"/>
	<circle class="st2" cx="524.4" cy="245" r="1.1"/>
	<circle class="st2" cx="552.7" cy="245" r="1.1"/>
	<polyline class="st1" points="297.7,171.3 297.7,187.7 283.5,195.9 	"/>
	<polygon class="st1" points="297.7,187.7 283.5,195.9 283.5,179.5 297.7,171.3 	"/>
	<polyline class="st1" points="269.3,171.3 283.5,179.5 283.5,195.9 	"/>
	<polyline class="st1" points="326,171.3 326,187.7 311.9,195.9 297.7,187.7 297.7,171.3 	"/>
	<polygon class="st1" points="326,187.7 311.9,195.9 311.9,179.5 326,171.3 	"/>
	<polygon class="st1" points="311.9,179.5 311.9,195.9 297.7,187.7 297.7,171.3 	"/>
	<line class="st1" x1="326" y1="187.7" x2="326" y2="171.3"/>
	<line class="st1" x1="326" y1="187.7" x2="326" y2="171.3"/>
	<polyline class="st1" points="283.5,195.9 283.5,212.2 269.3,220.4 	"/>
	<polyline class="st1" points="283.5,195.9 283.5,212.2 269.3,220.4 	"/>
	<polyline class="st1" points="297.7,220.4 283.5,212.2 283.5,195.9 	"/>
	<polyline class="st1" points="297.7,220.4 297.7,204.1 311.9,195.9 	"/>
	<polyline class="st1" points="283.5,195.9 297.7,204.1 297.7,220.4 283.5,212.2 283.5,195.9 	"/>
	<circle class="st2" cx="269.3" cy="171.3" r="1.1"/>
	<circle class="st2" cx="297.7" cy="171.3" r="1.1"/>
	<circle class="st2" cx="326" cy="171.3" r="1.1"/>
	<circle class="st2" cx="283.4" cy="179.5" r="1.1"/>
	<circle class="st2" cx="311.8" cy="179.5" r="1.1"/>
	<circle class="st2" cx="297.7" cy="187.7" r="1.1"/>
	<circle class="st2" cx="326" cy="187.7" r="1.1"/>
	<circle class="st2" cx="297.7" cy="187.7" r="1.1"/>
	<circle class="st2" cx="326" cy="187.7" r="1.1"/>
	<circle class="st2" cx="283.6" cy="195.9" r="1.1"/>
	<circle class="st2" cx="311.9" cy="195.9" r="1.1"/>
	<circle class="st2" cx="297.7" cy="204.1" r="1.1"/>
	<circle class="st2" cx="283.5" cy="212.2" r="1.1"/>
	<circle class="st2" cx="283.5" cy="212.2" r="1.1"/>
	<circle class="st2" cx="269.4" cy="220.4" r="1.1"/>
	<circle class="st2" cx="297.7" cy="220.4" r="1.1"/>
	<polyline class="st1" points="297.7,171.3 297.7,187.7 283.5,195.9 	"/>
	<polygon class="st1" points="297.7,187.7 283.5,195.9 283.5,179.5 297.7,171.3 	"/>
	<polyline class="st1" points="269.3,171.3 283.5,179.5 283.5,195.9 	"/>
	<polyline class="st1" points="326,171.3 326,187.7 311.9,195.9 297.7,187.7 297.7,171.3 	"/>
	<polygon class="st1" points="326,187.7 311.9,195.9 311.9,179.5 326,171.3 	"/>
	<polygon class="st1" points="311.9,179.5 311.9,195.9 297.7,187.7 297.7,171.3 	"/>
	<line class="st1" x1="326" y1="187.7" x2="326" y2="171.3"/>
	<line class="st1" x1="326" y1="187.7" x2="326" y2="171.3"/>
	<polyline class="st1" points="283.5,195.9 283.5,212.2 269.3,220.4 	"/>
	<polyline class="st1" points="283.5,195.9 283.5,212.2 269.3,220.4 	"/>
	<polyline class="st1" points="297.7,220.4 283.5,212.2 283.5,195.9 	"/>
	<polyline class="st1" points="297.7,220.4 297.7,204.1 311.9,195.9 	"/>
	<polyline class="st1" points="283.5,195.9 297.7,204.1 297.7,220.4 283.5,212.2 283.5,195.9 	"/>
	<circle class="st2" cx="269.3" cy="171.3" r="1.1"/>
	<circle class="st2" cx="297.7" cy="171.3" r="1.1"/>
	<circle class="st2" cx="326" cy="171.3" r="1.1"/>
	<circle class="st2" cx="283.4" cy="179.5" r="1.1"/>
	<circle class="st2" cx="311.8" cy="179.5" r="1.1"/>
	<circle class="st2" cx="297.7" cy="187.7" r="1.1"/>
	<circle class="st2" cx="326" cy="187.7" r="1.1"/>
	<circle class="st2" cx="297.7" cy="187.7" r="1.1"/>
	<circle class="st2" cx="326" cy="187.7" r="1.1"/>
	<circle class="st2" cx="283.6" cy="195.9" r="1.1"/>
	<circle class="st2" cx="311.9" cy="195.9" r="1.1"/>
	<circle class="st2" cx="297.7" cy="204.1" r="1.1"/>
	<circle class="st2" cx="283.5" cy="212.2" r="1.1"/>
	<circle class="st2" cx="283.5" cy="212.2" r="1.1"/>
	<circle class="st2" cx="269.4" cy="220.4" r="1.1"/>
	<circle class="st2" cx="297.7" cy="220.4" r="1.1"/>
</g>
<polygon class="st3" points="778.7,130.4 764.5,138.6 764.5,122.2 778.7,114 "/>
<polyline class="st3" points="807,114 807,130.4 792.8,138.6 778.7,130.4 778.7,114 "/>
<polygon class="st3" points="807,130.4 792.8,138.6 792.8,122.2 807,114 "/>
<polygon class="st3" points="792.8,122.2 792.8,138.6 778.7,130.4 778.7,114 "/>
<polyline class="st3" points="821.2,138.6 807,130.4 807,114 "/>
<polyline class="st3" points="821.2,138.6 807,130.4 807,114 "/>
<polyline class="st3" points="764.5,138.6 764.5,155 750.3,163.1 736.2,155 "/>
<polyline class="st3" points="764.5,138.6 764.5,155 750.3,163.1 750.3,146.8 764.5,138.6 "/>
<polyline class="st3" points="736.2,138.6 750.3,146.8 750.3,163.1 736.2,155 "/>
<polyline class="st3" points="792.8,138.6 792.8,155 778.7,163.1 764.5,155 764.5,138.6 "/>
<polyline class="st3" points="792.8,138.6 792.8,155 778.7,163.1 "/>
<polyline class="st3" points="778.7,163.1 764.5,155 764.5,138.6 "/>
<polyline class="st3" points="807,163.1 792.8,155 792.8,138.6 "/>
<polyline class="st3" points="807,163.1 807,146.8 821.2,138.6 "/>
<polyline class="st3" points="792.8,138.6 807,146.8 807,163.1 792.8,155 792.8,138.6 "/>
<line class="st3" x1="736.2" y1="171.3" x2="750.3" y2="163.1"/>
<polyline class="st3" points="778.7,163.1 792.8,171.3 792.8,187.7 "/>
<circle class="st4" cx="778.7" cy="130.4" r="1.1"/>
<circle class="st4" cx="807" cy="130.4" r="1.1"/>
<circle class="st4" cx="778.7" cy="130.4" r="1.1"/>
<circle class="st4" cx="807" cy="130.4" r="1.1"/>
<circle class="st4" cx="764.6" cy="138.6" r="1.1"/>
<circle class="st4" cx="792.9" cy="138.6" r="1.1"/>
<circle class="st4" cx="821.3" cy="138.6" r="1.1"/>
<circle class="st4" cx="750.3" cy="146.8" r="1.1"/>
<circle class="st4" cx="807" cy="146.8" r="1.1"/>
<circle class="st4" cx="764.5" cy="155" r="1.1"/>
<circle class="st4" cx="792.8" cy="155" r="1.1"/>
<circle class="st4" cx="764.5" cy="155" r="1.1"/>
<circle class="st4" cx="792.8" cy="155" r="1.1"/>
<circle class="st4" cx="750.4" cy="163.1" r="1.1"/>
<circle class="st4" cx="778.8" cy="163.1" r="1.1"/>
<path class="st4" d="M807.1,162c-0.6,0-1.1,0.5-1.1,1.1c0,0.6,0.5,1.1,1.1,1.1"/>
<circle class="st4" cx="792.8" cy="171.3" r="1.1"/>
<circle class="st4" cx="792.8" cy="187.7" r="1.1"/>
<path class="st4" d="M722.9,98.8c0.6,0,1.1-0.5,1.1-1.1c0-0.6-0.5-1.1-1.1-1.1"/>
<polyline class="st3" points="850.3,24 850.3,40.4 836.1,48.6 "/>
<line class="st3" x1="850.3" y1="40.4" x2="850.3" y2="24"/>
<polyline class="st3" points="807.7,48.6 807.7,32.2 821.9,24 "/>
<polygon class="st3" points="807.7,32.2 821.9,24 821.9,40.4 807.7,48.6 "/>
<polyline class="st3" points="836.1,48.6 821.9,40.4 821.9,24 "/>
<polyline class="st3" points="779.4,48.6 779.4,32.2 793.6,24 807.7,32.2 807.7,48.6 "/>
<polygon class="st3" points="779.4,32.2 793.6,24 793.6,40.4 779.4,48.6 "/>
<polygon class="st3" points="793.6,40.4 793.6,24 807.7,32.2 807.7,48.6 "/>
<line class="st3" x1="779.4" y1="32.2" x2="779.4" y2="48.6"/>
<polyline class="st3" points="751.1,48.6 751.1,32.2 765.2,24 "/>
<polygon class="st3" points="751.1,32.2 765.2,24 765.2,40.4 751.1,48.6 "/>
<polyline class="st3" points="779.4,32.2 779.4,48.6 765.2,40.4 765.2,24 "/>
<polyline class="st3" points="736.9,24 751.1,32.2 751.1,48.6 "/>
<polyline class="st3" points="736.9,24 736.9,40.4 722.7,48.6 "/>
<polygon class="st3" points="736.9,40.4 736.9,24 751.1,32.2 751.1,48.6 "/>
<line class="st3" x1="666" y1="48.6" x2="666" y2="32.2"/>
<polyline class="st3" points="680.2,40.4 666,48.6 666,32.2 "/>
<line class="st3" x1="694.4" y1="48.6" x2="680.2" y2="40.4"/>
<polyline class="st3" points="637.7,48.6 637.7,32.2 651.8,24 666,32.2 666,48.6 "/>
<polygon class="st3" points="637.7,32.2 651.8,24 651.8,40.4 637.7,48.6 "/>
<polygon class="st3" points="651.8,40.4 651.8,24 666,32.2 666,48.6 "/>
<polyline class="st3" points="609.3,48.6 609.3,32.2 623.5,24 637.7,32.2 637.7,48.6 "/>
<polygon class="st3" points="609.3,32.2 623.5,24 623.5,40.4 609.3,48.6 "/>
<polygon class="st3" points="623.5,40.4 623.5,24 637.7,32.2 637.7,48.6 "/>
<polyline class="st3" points="595.1,24 609.3,32.2 609.3,48.6 "/>
<path class="st3" d="M581,48.6"/>
<polyline class="st3" points="595.1,24 595.1,40.4 581,48.6 "/>
<polygon class="st3" points="595.1,40.4 595.1,24 609.3,32.2 609.3,48.6 "/>
<path class="st3" d="M581,48.6"/>
<path class="st3" d="M566.8,24"/>
<path class="st3" d="M552.6,48.6"/>
<polyline class="st3" points="566.8,24 566.8,40.4 552.6,48.6 "/>
<polyline class="st3" points="581,48.6 566.8,40.4 566.8,24 "/>
<path class="st3" d="M552.6,48.6"/>
<path class="st3" d="M538.5,24"/>
<polyline class="st3" points="538.5,24 538.5,40.4 524.3,48.6 "/>
<polyline class="st3" points="552.6,48.6 538.5,40.4 538.5,24 "/>
<polyline class="st3" points="495.9,48.6 495.9,32.2 510.1,24 "/>
<polygon class="st3" points="495.9,32.2 510.1,24 510.1,40.4 495.9,48.6 "/>
<polyline class="st3" points="524.3,48.6 510.1,40.4 510.1,24 "/>
<polyline class="st3" points="467.6,48.6 467.6,32.2 481.8,24 495.9,32.2 495.9,48.6 "/>
<polygon class="st3" points="467.6,32.2 481.8,24 481.8,40.4 467.6,48.6 "/>
<polygon class="st3" points="481.8,40.4 481.8,24 495.9,32.2 495.9,48.6 "/>
<polyline class="st3" points="453.4,24 467.6,32.2 467.6,48.6 "/>
<line class="st3" x1="453.4" y1="24" x2="453.4" y2="40.4"/>
<polygon class="st3" points="453.4,40.4 453.4,24 467.6,32.2 467.6,48.6 "/>
<line class="st3" x1="410.9" y1="48.6" x2="410.9" y2="32.2"/>
<polyline class="st3" points="425.1,40.4 410.9,48.6 410.9,32.2 "/>
<path class="st3" d="M425.1,40.4"/>
<polyline class="st3" points="396.7,24 410.9,32.2 410.9,48.6 "/>
<path class="st3" d="M382.6,48.6"/>
<polyline class="st3" points="396.7,24 396.7,40.4 382.6,48.6 "/>
<polygon class="st3" points="396.7,40.4 396.7,24 410.9,32.2 410.9,48.6 "/>
<path class="st3" d="M382.6,48.6"/>
<line class="st3" x1="368.4" y1="40.4" x2="354.2" y2="48.6"/>
<line class="st3" x1="382.6" y1="48.6" x2="368.4" y2="40.4"/>
<polyline class="st3" points="325.9,48.6 325.9,32.2 340,24 "/>
<polygon class="st3" points="325.9,32.2 340,24 340,40.4 325.9,48.6 "/>
<polyline class="st3" points="354.2,48.6 340,40.4 340,24 "/>
<polyline class="st3" points="297.5,32.2 311.7,24 325.9,32.2 325.9,48.6 "/>
<polyline class="st3" points="297.5,32.2 311.7,24 311.7,40.4 "/>
<polygon class="st3" points="311.7,40.4 311.7,24 325.9,32.2 325.9,48.6 "/>
<path class="st3" d="M297.5,32.2"/>
<path class="st3" d="M269.2,48.6"/>
<path class="st3" d="M269.2,48.6"/>
<path class="st3" d="M298.8,56"/>
<path class="st3" d="M297.5,32.2"/>
<path class="st3" d="M269.2,48.6"/>
<path class="st3" d="M255,24"/>
<path class="st3" d="M240.8,48.6"/>
<path class="st3" d="M255,24"/>
<path class="st3" d="M255,24"/>
<path class="st3" d="M269.2,48.6"/>
<polyline class="st3" points="226.6,24 226.6,40.4 212.5,48.6 "/>
<polyline class="st3" points="240.8,48.6 226.6,40.4 226.6,24 "/>
<polyline class="st3" points="184.1,48.6 184.1,32.2 198.3,24 "/>
<polygon class="st3" points="184.1,32.2 198.3,24 198.3,40.4 184.1,48.6 "/>
<polyline class="st3" points="212.5,48.6 198.3,40.4 198.3,24 "/>
<polyline class="st3" points="155.8,48.6 155.8,32.2 170,24 184.1,32.2 184.1,48.6 "/>
<polygon class="st3" points="155.8,32.2 170,24 170,40.4 155.8,48.6 "/>
<polygon class="st3" points="170,40.4 170,24 184.1,32.2 184.1,48.6 "/>
<line class="st3" x1="155.8" y1="32.2" x2="155.8" y2="48.6"/>
<path class="st3" d="M127.4,48.6"/>
<path class="st3" d="M127.4,48.6"/>
<path class="st3" d="M113.3,40.4"/>
<polyline class="st3" points="42.4,48.6 42.4,32.2 56.6,24 "/>
<polygon class="st3" points="42.4,32.2 56.6,24 56.6,40.4 42.4,48.6 "/>
<polyline class="st3" points="70.7,48.6 56.6,40.4 56.6,24 "/>
<polyline class="st3" points="14,48.6 14,32.2 28.2,24 42.4,32.2 42.4,48.6 "/>
<polygon class="st3" points="14,32.2 28.2,24 28.2,40.4 14,48.6 "/>
<polygon class="st3" points="28.2,40.4 28.2,24 42.4,32.2 42.4,48.6 "/>
<polyline class="st3" points="-0.1,24 14,32.2 14,48.6 "/>
<line class="st3" x1="-0.1" y1="24" x2="-0.1" y2="40.4"/>
<polygon class="st3" points="-0.1,40.4 -0.1,24 14,32.2 14,48.6 "/>
<path class="st3" d="M850.3,24"/>
<path class="st3" d="M821.9,24"/>
<line class="st3" x1="836.1" y1="15.8" x2="821.9" y2="24"/>
<path class="st3" d="M821.9,24"/>
<path class="st3" d="M850.3,24"/>
<line class="st3" x1="850.3" y1="24" x2="836.1" y2="15.8"/>
<path class="st3" d="M821.9,24"/>
<path class="st3" d="M793.6,24"/>
<line class="st3" x1="807.7" y1="15.8" x2="793.6" y2="24"/>
<path class="st3" d="M793.6,24"/>
<path class="st3" d="M821.9,24"/>
<line class="st3" x1="821.9" y1="24" x2="807.7" y2="15.8"/>
<path class="st3" d="M793.6,24"/>
<line class="st3" x1="779.4" y1="15.8" x2="765.2" y2="24"/>
<path class="st3" d="M793.6,24"/>
<line class="st3" x1="793.6" y1="24" x2="779.4" y2="15.8"/>
<line class="st3" x1="751.1" y1="15.8" x2="736.9" y2="24"/>
<line class="st3" x1="765.2" y1="24" x2="751.1" y2="15.8"/>
<path class="st3" d="M651.8,24"/>
<line class="st3" x1="666" y1="15.8" x2="651.8" y2="24"/>
<path class="st3" d="M651.8,24"/>
<path class="st3" d="M666,15.8"/>
<path class="st3" d="M651.8,24"/>
<path class="st3" d="M623.5,24"/>
<line class="st3" x1="637.7" y1="15.8" x2="623.5" y2="24"/>
<path class="st3" d="M623.5,24"/>
<path class="st3" d="M651.8,24"/>
<line class="st3" x1="651.8" y1="24" x2="637.7" y2="15.8"/>
<path class="st3" d="M623.5,24"/>
<path class="st3" d="M595.1,24"/>
<line class="st3" x1="609.3" y1="15.8" x2="595.1" y2="24"/>
<path class="st3" d="M595.1,24"/>
<path class="st3" d="M623.5,24"/>
<path class="st3" d="M609.3,15.8"/>
<path class="st3" d="M595.1,24"/>
<line class="st3" x1="581" y1="15.8" x2="566.8" y2="24"/>
<path class="st3" d="M595.1,24"/>
<line class="st3" x1="595.1" y1="24" x2="581" y2="15.8"/>
<path class="st3" d="M538.5,24"/>
<path class="st3" d="M538.5,24"/>
<path class="st3" d="M538.5,24"/>
<path class="st3" d="M566.8,24"/>
<path class="st3" d="M538.5,24"/>
<line class="st3" x1="524.3" y1="15.8" x2="510.1" y2="24"/>
<path class="st3" d="M538.5,24"/>
<line class="st3" x1="538.5" y1="24" x2="524.3" y2="15.8"/>
<path class="st3" d="M481.8,24"/>
<line class="st3" x1="495.9" y1="15.8" x2="481.8" y2="24"/>
<path class="st3" d="M481.8,24"/>
<line class="st3" x1="510.1" y1="24" x2="495.9" y2="15.8"/>
<path class="st3" d="M481.8,24"/>
<path class="st3" d="M453.4,24"/>
<line class="st3" x1="467.6" y1="15.8" x2="453.4" y2="24"/>
<path class="st3" d="M453.4,24"/>
<path class="st3" d="M481.8,24"/>
<path class="st3" d="M467.6,15.8"/>
<path class="st3" d="M453.4,24"/>
<path class="st3" d="M453.4,24"/>
<path class="st3" d="M453.4,24"/>
<path class="st3" d="M396.7,24"/>
<path class="st3" d="M396.7,24"/>
<path class="st3" d="M396.7,24"/>
<path class="st3" d="M396.7,24"/>
<path class="st3" d="M396.7,24"/>
<path class="st3" d="M340,24"/>
<path class="st3" d="M340,24"/>
<path class="st3" d="M340,24"/>
<path class="st3" d="M340,24"/>
<path class="st3" d="M311.7,24"/>
<line class="st3" x1="325.9" y1="15.8" x2="311.7" y2="24"/>
<path class="st3" d="M311.7,24"/>
<path class="st3" d="M340,24"/>
<line class="st3" x1="340" y1="24" x2="325.9" y2="15.8"/>
<path class="st3" d="M311.7,24"/>
<path class="st3" d="M311.7,24"/>
<path class="st3" d="M311.7,24"/>
<path class="st3" d="M226.6,24"/>
<line class="st3" x1="240.8" y1="15.8" x2="226.6" y2="24"/>
<path class="st3" d="M226.6,24"/>
<line class="st3" x1="255" y1="24" x2="240.8" y2="15.8"/>
<path class="st3" d="M226.6,24"/>
<path class="st3" d="M198.3,24"/>
<line class="st3" x1="212.5" y1="15.8" x2="198.3" y2="24"/>
<path class="st3" d="M198.3,24"/>
<path class="st3" d="M226.6,24"/>
<path class="st3" d="M212.5,15.8"/>
<path class="st3" d="M198.3,24"/>
<path class="st3" d="M170,24"/>
<line class="st3" x1="184.1" y1="15.8" x2="170" y2="24"/>
<path class="st3" d="M170,24"/>
<path class="st3" d="M198.3,24"/>
<line class="st3" x1="198.3" y1="24" x2="184.1" y2="15.8"/>
<path class="st3" d="M170,24"/>
<path class="st3" d="M170,24"/>
<line class="st3" x1="28.2" y1="24" x2="28.2" y2="7.6"/>
<line class="st3" x1="42.4" y1="15.8" x2="28.2" y2="24"/>
<line class="st3" x1="28.2" y1="24" x2="28.2" y2="7.6"/>
<line class="st3" x1="56.6" y1="24" x2="42.4" y2="15.8"/>
<polyline class="st3" points="-0.1,24 -0.1,7.6 14,-0.6 28.2,7.6 28.2,24 "/>
<polyline class="st3" points="-0.1,24 -0.1,7.6 14,-0.6 14,15.8 -0.1,24 "/>
<polyline class="st3" points="28.2,24 14,15.8 14,-0.6 28.2,7.6 28.2,24 "/>
<path class="st3" d="M14-0.6"/>
<circle class="st4" cx="807.7" cy="32.2" r="1.1"/>
<path class="st4" d="M779.4,33.3c0.6,0,1.1-0.5,1.1-1.1c0-0.6-0.5-1.1-1.1-1.1"/>
<circle class="st4" cx="751.1" cy="32.2" r="1.1"/>
<circle class="st4" cx="666" cy="32.2" r="1.1"/>
<circle class="st4" cx="637.7" cy="32.2" r="1.1"/>
<circle class="st4" cx="609.3" cy="32.2" r="1.1"/>
<circle class="st4" cx="495.9" cy="32.2" r="1.1"/>
<circle class="st4" cx="467.6" cy="32.2" r="1.1"/>
<circle class="st4" cx="410.9" cy="32.2" r="1.1"/>
<circle class="st4" cx="325.9" cy="32.2" r="1.1"/>
<circle class="st4" cx="297.5" cy="32.2" r="1.1"/>
<circle class="st4" cx="184.1" cy="32.2" r="1.1"/>
<circle class="st4" cx="155.8" cy="32.2" r="1.1"/>
<circle class="st4" cx="42.4" cy="32.2" r="1.1"/>
<circle class="st4" cx="14" cy="32.2" r="1.1"/>
<circle class="st4" cx="807.7" cy="32.2" r="1.1"/>
<path class="st4" d="M779.4,33.3c0.6,0,1.1-0.5,1.1-1.1c0-0.6-0.5-1.1-1.1-1.1"/>
<circle class="st4" cx="751.1" cy="32.2" r="1.1"/>
<circle class="st4" cx="666" cy="32.2" r="1.1"/>
<circle class="st4" cx="637.7" cy="32.2" r="1.1"/>
<circle class="st4" cx="609.3" cy="32.2" r="1.1"/>
<circle class="st4" cx="495.9" cy="32.2" r="1.1"/>
<circle class="st4" cx="467.6" cy="32.2" r="1.1"/>
<circle class="st4" cx="410.9" cy="32.2" r="1.1"/>
<circle class="st4" cx="325.9" cy="32.2" r="1.1"/>
<circle class="st4" cx="297.5" cy="32.2" r="1.1"/>
<circle class="st4" cx="184.1" cy="32.2" r="1.1"/>
<circle class="st4" cx="155.8" cy="32.2" r="1.1"/>
<circle class="st4" cx="42.4" cy="32.2" r="1.1"/>
<circle class="st4" cx="14" cy="32.2" r="1.1"/>
<circle class="st4" cx="850.2" cy="24" r="1.1"/>
<circle class="st4" cx="821.8" cy="24" r="1.1"/>
<circle class="st4" cx="793.5" cy="24" r="1.1"/>
<circle class="st4" cx="765.2" cy="24" r="1.1"/>
<circle class="st4" cx="736.8" cy="24" r="1.1"/>
<circle class="st4" cx="651.8" cy="24" r="1.1"/>
<circle class="st4" cx="623.4" cy="24" r="1.1"/>
<circle class="st4" cx="595.1" cy="24" r="1.1"/>
<circle class="st4" cx="566.7" cy="24" r="1.1"/>
<circle class="st4" cx="538.4" cy="24" r="1.1"/>
<circle class="st4" cx="510" cy="24" r="1.1"/>
<circle class="st4" cx="481.7" cy="24" r="1.1"/>
<circle class="st4" cx="453.3" cy="24" r="1.1"/>
<circle class="st4" cx="396.6" cy="24" r="1.1"/>
<circle class="st4" cx="340" cy="24" r="1.1"/>
<circle class="st4" cx="311.6" cy="24" r="1.1"/>
<circle class="st4" cx="254.9" cy="24" r="1.1"/>
<circle class="st4" cx="226.6" cy="24" r="1.1"/>
<circle class="st4" cx="198.2" cy="24" r="1.1"/>
<circle class="st4" cx="169.9" cy="24" r="1.1"/>
<circle class="st4" cx="56.5" cy="24" r="1.1"/>
<circle class="st4" cx="28.1" cy="24" r="1.1"/>
<circle class="st4" cx="-0.2" cy="24" r="1.1"/>
<circle class="st4" cx="836.1" cy="15.8" r="1.1"/>
<circle class="st4" cx="807.7" cy="15.8" r="1.1"/>
<circle class="st4" cx="779.4" cy="15.8" r="1.1"/>
<circle class="st4" cx="751.1" cy="15.8" r="1.1"/>
<circle class="st4" cx="666" cy="15.8" r="1.1"/>
<circle class="st4" cx="637.7" cy="15.8" r="1.1"/>
<circle class="st4" cx="609.3" cy="15.8" r="1.1"/>
<circle class="st4" cx="581" cy="15.8" r="1.1"/>
<circle class="st4" cx="524.3" cy="15.8" r="1.1"/>
<circle class="st4" cx="495.9" cy="15.8" r="1.1"/>
<path class="st4" d="M467.6,14.7c-0.6,0-1.1,0.5-1.1,1.1c0,0.6,0.5,1.1,1.1,1.1"/>
<circle class="st4" cx="325.9" cy="15.8" r="1.1"/>
<circle class="st4" cx="240.8" cy="15.8" r="1.1"/>
<circle class="st4" cx="212.5" cy="15.8" r="1.1"/>
<circle class="st4" cx="184.1" cy="15.8" r="1.1"/>
<circle class="st4" cx="42.4" cy="15.8" r="1.1"/>
<circle class="st4" cx="14" cy="15.8" r="1.1"/>
<circle class="st4" cx="28.2" cy="7.6" r="1.1"/>
<circle class="st4" cx="28.2" cy="7.6" r="1.1"/>
<circle class="st4" cx="14" cy="-0.6" r="1.1"/>
<circle class="st4" cx="-0.1" cy="7.6" r="1.1"/>
</svg>
