<svg xmlns="http://www.w3.org/2000/svg" width="36" height="36" viewBox="0 0 24 24" fill="none" stroke="currentColor" stroke-width="2" stroke-linecap="round" stroke-linejoin="round" class="ai ai-ShippingBoxV2" data-darkreader-inline-stroke="" style="--darkreader-inline-stroke:currentColor;"><path d="M11.029 2.54a2 2 0 0 1 1.942 0l7.515 4.174a1 1 0 0 1 .514.874v8.235a2 2 0 0 1-1.029 1.748l-7 3.89a2 2 0 0 1-1.942 0l-7-3.89A2 2 0 0 1 3 15.824V7.588a1 1 0 0 1 .514-.874L11.03 2.54z"/><path d="M7.5 4.5l9 5V13"/><path d="M6 12.328L9 14"/><path d="M3 7l9 5m0 0l9-5m-9 5v9.5"/></svg>