<svg xmlns="http://www.w3.org/2000/svg" width="36" height="36" viewBox="0 0 24 24" fill="currentColor" stroke-width="2" class="ai ai-DragHorizontalFill" data-darkreader-inline-fill="" style="--darkreader-inline-fill:currentColor;"><path fill-rule="evenodd" clip-rule="evenodd" d="M22 8a2 2 0 1 1-4 0 2 2 0 0 1 4 0z"/><path fill-rule="evenodd" clip-rule="evenodd" d="M22 16a2 2 0 1 1-4 0 2 2 0 0 1 4 0z"/><path fill-rule="evenodd" clip-rule="evenodd" d="M14 16a2 2 0 1 1-4 0 2 2 0 0 1 4 0z"/><path fill-rule="evenodd" clip-rule="evenodd" d="M6 8a2 2 0 1 1-4 0 2 2 0 0 1 4 0z"/><path fill-rule="evenodd" clip-rule="evenodd" d="M6 16a2 2 0 1 1-4 0 2 2 0 0 1 4 0z"/><path fill-rule="evenodd" clip-rule="evenodd" d="M14 8a2 2 0 1 1-4 0 2 2 0 0 1 4 0z"/></svg>