<?xml version="1.0" encoding="utf-8"?>
<svg width="36" height="36" viewBox="0 0 24 24" fill="none" stroke="#ccc" stroke-width="1.5" stroke-linecap="round" stroke-linejoin="round" class="ai ai-ShippingBoxV2" xmlns="http://www.w3.org/2000/svg">
  <path d="M 15.602 3.999 C 12.365 5.635 9.763 6.959 9.738 7.014 L 16.148 10.435 C 16.387 10.567 16.535 10.819 16.535 11.092 L 16.535 17.284 C 16.535 17.83 16.239 18.333 15.761 18.598 L 10.498 21.523 C 10.044 21.776 9.491 21.776 9.037 21.523 L 3.774 18.598 C 3.297 18.333 3 17.831 3 17.285 L 3 11.092 C 3 10.819 3.148 10.567 3.386 10.435 L 6.487 8.732 L 9.01 7.352 L 15.602 3.999 Z" style=""/>
  <path d="M 5.256 14.656 L 7.512 15.913" style=""/>
  <path d="M 3 10.65 L 9.767 14.409 M 9.767 14.409 L 21.88 7.353 L 21.932 14.843 L 15.34 18.845 L 21.931 14.867 L 21.871 7.358 L 15.577 4 M 9.767 14.409 L 9.767 21.553" style=""/>
</svg>